<svg width="24" height="26" viewBox="0 0 24 26" fill="none" xmlns="http://www.w3.org/2000/svg">
<path fill-rule="evenodd" clip-rule="evenodd" d="M10.0144 2.50894C11.2164 1.83035 12.6836 1.83035 13.8856 2.50894C13.8947 2.51403 13.9036 2.51926 13.9125 2.52463L20.1001 6.27697C21.3211 6.97314 22 8.23099 22 9.59584V16.5058C22 17.8255 21.3552 19.1183 20.1836 19.7331L14.0125 23.4754C14.0036 23.4807 13.9947 23.486 13.9856 23.4911C12.7836 24.1696 11.3164 24.1696 10.1144 23.4911C10.1053 23.486 10.0964 23.4807 10.0875 23.4754L3.89984 19.723C2.67884 19.0268 2 17.769 2 16.4042V9.59584C2 8.23225 2.6776 6.97546 3.8965 6.2789L9.98139 2.5284C9.99225 2.5217 10.0032 2.51521 10.0144 2.50894ZM11.0006 4.27714L4.91861 8.02588C4.90775 8.03257 4.89675 8.03906 4.88564 8.04533C4.31578 8.36704 4 8.93375 4 9.59584V16.4042C4 17.0663 4.31578 17.633 4.88564 17.9547C4.89466 17.9598 4.9036 17.965 4.91246 17.9704L11.0978 21.7213C11.6895 22.0498 12.4105 22.0498 13.0022 21.7213L19.1875 17.9704C19.2088 17.9574 19.2306 17.9453 19.2528 17.9341C19.6582 17.7281 20 17.2048 20 16.5058V9.59584C20 8.93375 19.6842 8.36704 19.1144 8.04533C19.1053 8.04024 19.0964 8.03501 19.0875 8.02964L12.9022 4.27871C12.3115 3.95073 11.5918 3.95021 11.0006 4.27714ZM12 10.9169C10.8402 10.9169 9.89999 11.8723 9.89999 13.0508C9.89999 14.2294 10.8402 15.1848 12 15.1848C13.1598 15.1848 14.1 14.2294 14.1 13.0508C14.1 11.8723 13.1598 10.9169 12 10.9169ZM7.89999 13.0508C7.89999 10.7498 9.73563 8.88453 12 8.88453C14.2644 8.88453 16.1 10.7498 16.1 13.0508C16.1 15.3518 14.2644 17.2171 12 17.2171C9.73563 17.2171 7.89999 15.3518 7.89999 13.0508Z" fill="black"/>
</svg>

